# xmcd CD database file
#
# Track frame offsets:
#	150
#	21235
#	41886
#	64923
#	79957
#	97286
#	113549
#	130271
#
# Disc length: 2129 seconds
#
# Revision: 0
# Processed by: cddbd v1.5PL3 Copyright (c) Steve Scherf et al.
# Submitted via: CDex 1.51
#
DISCID=6f084f08
DTITLE=Various Artist - 琉球詩歌
DYEAR=2003
DGENRE=Country
TTITLE0=LAST CHRISTMAS／AS
TTITLE1=Feliz navidad!／KACHINBE 1551
TTITLE2=粉雪／東江 千鶴
TTITLE3=Have yourself A Merry Little Christmas／森田 泰昭
TTITLE4=I'll Be Your Angel／one wish
TTITLE5=THE CHRISTMAS SONG／ルビエス
TTITLE6=127EX26N (A HAPPY NEW YEAR)／THE WALTZ
TTITLE7=SILENT NIGHT／Arena
EXTD=YEAR: 2003
EXTT0=
EXTT1=
EXTT2=
EXTT3=
EXTT4=
EXTT5=
EXTT6=
EXTT7=
PLAYORDER=
